<?xml version="1.0" encoding="UTF-8" standalone="no"?>
<svg width="1200px" height="2600px" viewBox="0 0 1200 2600" version="1.1" xmlns="http://www.w3.org/2000/svg" xmlns:xlink="http://www.w3.org/1999/xlink" xmlns:sketch="http://www.bohemiancoding.com/sketch/ns">
    <!-- Generator: Sketch 3.3.3 (12072) - http://www.bohemiancoding.com/sketch -->
    <title>bg-02</title>
    <desc>Created with Sketch.</desc>
    <defs>
        <linearGradient x1="50%" y1="0%" x2="50%" y2="100%" id="linearGradient-1">
            <stop stop-color="#FFFFFF" offset="0%"></stop>
            <stop stop-color="#B7802A" offset="100%"></stop>
        </linearGradient>
        <linearGradient x1="50%" y1="0%" x2="50%" y2="100%" id="linearGradient-2">
            <stop stop-color="#B4ED50" offset="0%"></stop>
            <stop stop-color="#2C9321" offset="100%"></stop>
        </linearGradient>
        <radialGradient cx="50%" cy="0%" fx="50%" fy="0%" r="100%" id="radialGradient-3">
            <stop stop-color="#6556CD" offset="0%"></stop>
            <stop stop-color="#111517" offset="100%"></stop>
        </radialGradient>
        <radialGradient cx="36.8352562%" cy="24.2083794%" fx="36.8352562%" fy="24.2083794%" r="75.8617514%" id="radialGradient-4">
            <stop stop-color="#B52222" offset="0%"></stop>
            <stop stop-color="#AD518E" offset="100%"></stop>
        </radialGradient>
        <linearGradient x1="50%" y1="0%" x2="50%" y2="100%" id="linearGradient-5">
            <stop stop-color="#E36767" offset="0%"></stop>
            <stop stop-color="#9C722B" offset="100%"></stop>
        </linearGradient>
        <linearGradient x1="50%" y1="0%" x2="50%" y2="100%" id="linearGradient-6">
            <stop stop-color="#67CBE3" offset="0%"></stop>
            <stop stop-color="#0C3482" offset="100%"></stop>
        </linearGradient>
        <linearGradient x1="50%" y1="0%" x2="50%" y2="100%" id="linearGradient-7">
            <stop stop-color="#6D247E" offset="0%"></stop>
            <stop stop-color="#282674" offset="100%"></stop>
        </linearGradient>
        <linearGradient x1="50%" y1="0%" x2="50%" y2="100%" id="linearGradient-8">
            <stop stop-color="#EDC450" offset="0%"></stop>
            <stop stop-color="#936821" offset="100%"></stop>
        </linearGradient>
        <linearGradient x1="50%" y1="0%" x2="50%" y2="100%" id="linearGradient-9">
            <stop stop-color="#E3D967" offset="0%"></stop>
            <stop stop-color="#353535" offset="100%"></stop>
        </linearGradient>
        <linearGradient x1="50%" y1="0%" x2="50%" y2="100%" id="linearGradient-10">
            <stop stop-color="#7EE367" offset="0%"></stop>
            <stop stop-color="#820C3A" offset="100%"></stop>
        </linearGradient>
    </defs>
    <g id="Master" stroke="none" stroke-width="1" fill="none" fill-rule="evenodd" sketch:type="MSPage">
        <g id="Results-03" sketch:type="MSArtboardGroup">
            <g id="bg-02" sketch:type="MSLayerGroup" transform="translate(-401.000000, -386.000000)">
                <rect id="Mask" fill="#18102E" sketch:type="MSShapeGroup" x="401" y="386" width="1200" height="2600"></rect>
                <polygon id="Triangle-1" opacity="0.1" fill="url(#linearGradient-1)" sketch:type="MSShapeGroup" transform="translate(768.000000, 721.500000) rotate(-50.000000) translate(-768.000000, -721.500000) " points="768 498 1019 945 517 945 "></polygon>
                <polygon id="Triangle-1-Copy-4" opacity="0.1" fill="url(#linearGradient-1)" sketch:type="MSShapeGroup" transform="translate(1132.500000, 2901.000000) rotate(30.000000) translate(-1132.500000, -2901.000000) " points="1132.5 2554 1522 3248 743 3248 "></polygon>
                <polygon id="Triangle-1-Copy" opacity="0.200000003" fill="url(#linearGradient-2)" sketch:type="MSShapeGroup" transform="translate(1238.550623, 919.232299) rotate(-70.000000) translate(-1238.550623, -919.232299) " points="1238.55062 750.732299 1427.55062 1087.7323 1049.55062 1087.7323 "></polygon>
                <polygon id="Polygon-1" opacity="0.3" fill="url(#radialGradient-3)" sketch:type="MSShapeGroup" transform="translate(1179.000000, 674.000000) rotate(-40.000000) translate(-1179.000000, -674.000000) " points="1179 439 1402.49828 601.381006 1317.12953 864.118994 1040.87047 864.118994 955.501719 601.381006 "></polygon>
                <polygon id="Polygon-1-Copy" opacity="0.2" fill="url(#radialGradient-4)" sketch:type="MSShapeGroup" transform="translate(563.000000, 439.000000) rotate(-40.000000) translate(-563.000000, -439.000000) " points="563 128 858.778577 342.895715 745.801213 690.604285 380.198787 690.604285 267.221423 342.895715 "></polygon>
                <rect id="Rectangle-5" opacity="0.2" fill="url(#linearGradient-5)" sketch:type="MSShapeGroup" transform="translate(1510.500000, 1063.500000) rotate(70.000000) translate(-1510.500000, -1063.500000) " x="1365" y="918" width="291" height="291"></rect>
                <rect id="Rectangle-5-Copy" opacity="0.15" fill="url(#linearGradient-6)" sketch:type="MSShapeGroup" transform="translate(678.000000, 1109.000000) rotate(100.000000) translate(-678.000000, -1109.000000) " x="458" y="889" width="440" height="440"></rect>
                <polygon id="Triangle-1-Copy-3" opacity="0.200000003" fill="url(#linearGradient-7)" sketch:type="MSShapeGroup" transform="translate(401.039086, 1923.350290) scale(-1, -1) rotate(15.000000) translate(-401.039086, -1923.350290) " points="401.039086 1625.08304 736.005884 2221.61754 66.0722882 2221.61754 "></polygon>
                <polygon id="Triangle-1-Copy-2" opacity="0.1" fill="url(#linearGradient-8)" sketch:type="MSShapeGroup" transform="translate(1328.625717, 1449.626457) scale(-1, -1) rotate(-80.000000) translate(-1328.625717, -1449.626457) " points="1328.62572 1218.71905 1587.62572 1680.53386 1069.62572 1680.53386 "></polygon>
                <polygon id="Polygon-1-Copy-2" opacity="0.3" fill="url(#radialGradient-3)" sketch:type="MSShapeGroup" transform="translate(746.008248, 2432.167480) scale(-1, -1) rotate(-50.000000) translate(-746.008248, -2432.167480) " points="746.008248 2080.75939 1080.2172 2323.57641 952.560739 2716.46259 539.455758 2716.46259 411.799299 2323.57641 "></polygon>
                <rect id="Rectangle-5-Copy-2" opacity="0.1" fill="url(#linearGradient-9)" sketch:type="MSShapeGroup" transform="translate(1503.068921, 2298.677257) scale(-1, -1) rotate(60.000000) translate(-1503.068921, -2298.677257) " x="1214.42464" y="2010.03298" width="577.288558" height="577.288558"></rect>
                <rect id="Rectangle-5-Copy-3" opacity="0.15" fill="url(#linearGradient-10)" sketch:type="MSShapeGroup" transform="translate(938.482747, 1727.136031) scale(-1, -1) rotate(130.000000) translate(-938.482747, -1727.136031) " x="717.038463" y="1505.69175" width="442.888567" height="442.888567"></rect>
                <polygon id="Polygon-1-Copy-3" opacity="0.15" fill="url(#radialGradient-4)" sketch:type="MSShapeGroup" transform="translate(1594.146768, 1824.146768) rotate(-40.000000) translate(-1594.146768, -1824.146768) " points="1594.14677 1513.14677 1814.05698 1604.23656 1905.14677 1824.14677 1814.05698 2044.05698 1594.14677 2135.14677 1374.23656 2044.05698 1283.14677 1824.14677 1374.23656 1604.23656 "></polygon>
            </g>
        </g>
    </g>
</svg>