<?xml version="1.0" encoding="UTF-8" standalone="no"?>
<svg width="70px" height="70px" viewBox="0 0 70 70" version="1.1" xmlns="http://www.w3.org/2000/svg" xmlns:xlink="http://www.w3.org/1999/xlink" xmlns:sketch="http://www.bohemiancoding.com/sketch/ns">
    <!-- Generator: Sketch 3.5.2 (25235) - http://www.bohemiancoding.com/sketch -->
    <title>icon-wrong</title>
    <desc>Created with Sketch.</desc>
    <defs></defs>
    <g id="-Master" stroke="none" stroke-width="1" fill="none" fill-rule="evenodd" sketch:type="MSPage">
        <g id="assets" sketch:type="MSArtboardGroup" transform="translate(-253.000000, -207.000000)" fill="#FFFFFF">
            <path d="M280.928932,242 L254.464466,215.535534 C252.511845,213.582912 252.511845,210.417088 254.464466,208.464466 C256.417088,206.511845 259.582912,206.511845 261.535534,208.464466 L288,234.928932 L314.464466,208.464466 C316.417088,206.511845 319.582912,206.511845 321.535534,208.464466 C323.488155,210.417088 323.488155,213.582912 321.535534,215.535534 L295.071068,242 L321.535534,268.464466 C323.488155,270.417088 323.488155,273.582912 321.535534,275.535534 C319.582912,277.488155 316.417088,277.488155 314.464466,275.535534 L288,249.071068 L261.535534,275.535534 C259.582912,277.488155 256.417088,277.488155 254.464466,275.535534 C252.511845,273.582912 252.511845,270.417088 254.464466,268.464466 L280.928932,242 Z" id="icon-wrong" sketch:type="MSShapeGroup"></path>
        </g>
    </g>
</svg>